<svg width="228" height="218" viewBox="0 0 228 218" fill="none" xmlns="http://www.w3.org/2000/svg">
<path d="M40.8372 217.081L0.620512 176.865L14.7074 162.778C19.5872 157.898 24.2276 155.136 28.6286 154.491C33.0112 153.828 37.007 155.302 40.6162 158.911C42.5866 160.881 43.8203 163.128 44.3175 165.65C44.7963 168.155 44.4832 170.659 43.3784 173.163C45.9564 171.617 48.6172 171.037 51.3609 171.423C54.1231 171.791 56.6366 173.108 58.9016 175.373C62.7686 179.24 64.4627 183.402 63.9839 187.858C63.5051 192.314 61.0008 196.844 56.4709 201.448L40.8372 217.081ZM31.6117 191.283L42.4669 202.138L49.5656 195.039C51.5175 193.088 52.5763 191.108 52.742 189.101C52.9077 187.057 52.1712 185.215 50.5323 183.577C46.8495 179.894 43.0745 179.931 39.2075 183.687L31.6117 191.283ZM25.7559 185.427L31.8879 179.295C35.9943 175.042 36.4178 171.285 33.1585 168.026C31.3355 166.203 29.494 165.429 27.6342 165.706C25.7744 165.945 23.7028 167.206 21.4194 169.49L15.6189 175.29L25.7559 185.427ZM91.3014 160.54C91.725 164.905 90.1966 168.827 86.7163 172.307C83.5122 175.511 80.1424 177.04 76.6069 176.892C73.0897 176.727 69.5358 174.885 65.945 171.368L46.3615 151.784L54.3441 143.802L73.6514 163.109C76.7634 166.221 79.7373 166.359 82.5731 163.523C85.28 160.817 86.2007 158.018 85.3352 155.127L64.1773 133.969L72.1875 125.958L102.074 155.845L94.5608 163.358L91.3014 160.54ZM80.4186 103.033L87.7659 110.38L92.8758 105.27L98.7316 111.126L93.6216 116.236L108.537 131.151C109.642 132.256 110.646 132.836 111.548 132.891C112.45 132.947 113.5 132.376 114.697 131.179C115.581 130.295 116.299 129.448 116.851 128.638L122.9 134.687C121.814 136.731 120.442 138.581 118.785 140.239C113.187 145.837 107.506 145.864 101.742 140.322L85.6391 124.218L81.2749 128.582L75.4192 122.727L79.7833 118.363L72.436 111.015L80.4186 103.033ZM99.5326 83.9187L106.88 91.266L111.99 86.1561L117.846 92.0118L112.736 97.1218L127.651 112.037C128.756 113.142 129.76 113.722 130.662 113.777C131.564 113.833 132.614 113.262 133.811 112.065C134.695 111.181 135.413 110.334 135.965 109.524L142.014 115.573C140.928 117.617 139.556 119.467 137.899 121.125C132.301 126.723 126.62 126.75 120.856 121.208L104.753 105.104L100.389 109.468L94.5331 103.613L98.8973 99.2486L91.55 91.9013L99.5326 83.9187ZM129.032 98.4476C126.068 95.4829 123.996 92.2696 122.817 88.8077C121.639 85.3458 121.482 81.9116 122.348 78.505C123.232 75.0799 125.092 71.9495 127.927 69.1137C131.96 65.081 136.481 63.0278 141.489 62.9541C146.517 62.8621 151.295 64.7863 155.825 68.727L157.924 70.7157C162.509 75.3009 164.912 80.2635 165.133 85.6036C165.336 90.9254 163.283 95.7407 158.974 100.05C154.665 104.359 149.84 106.421 144.5 106.237C139.178 106.034 134.142 103.558 129.391 98.8067L129.032 98.4476ZM137.595 91.0451C140.431 93.8808 143.138 95.5197 145.716 95.9617C148.275 96.3852 150.549 95.6026 152.538 93.6138C154.471 91.6803 155.245 89.4338 154.858 86.8742C154.453 84.2962 152.621 81.3776 149.362 78.1183C146.581 75.3377 143.883 73.7265 141.268 73.2845C138.654 72.8426 136.361 73.6068 134.391 75.5771C132.439 77.529 131.693 79.8032 132.153 82.3996C132.595 84.9776 134.409 87.8594 137.595 91.0451ZM154.941 43.2049L158.642 46.4089C158.108 41.6028 159.637 37.4044 163.227 33.8136C166.395 30.6464 169.682 29.2192 173.088 29.5323C176.495 29.8453 180.067 31.8341 183.805 35.4985L203.113 54.8058L195.13 62.7884L176.016 43.6744C174.322 41.9803 172.729 41.1241 171.238 41.1056C169.728 41.0688 168.116 41.9067 166.404 43.6192C164.157 45.8657 163.43 48.5082 164.222 51.5465L185.297 72.6216L177.314 80.6042L147.428 50.7179L154.941 43.2049ZM217.117 24.2842C216.141 23.3083 214.889 23.0321 213.36 23.4556C211.832 23.8423 209.779 24.8827 207.201 26.5768C198.601 32.1931 192.027 32.7272 187.479 28.1788C184.827 25.5272 183.713 22.2218 184.137 18.2628C184.56 14.2669 186.549 10.492 190.103 6.93802C193.896 3.14468 197.819 1.00863 201.87 0.529863C205.939 0.0326783 209.401 1.21119 212.255 4.0654L204.273 12.048C203.131 10.9063 201.824 10.3354 200.351 10.3354C198.859 10.317 197.331 11.0904 195.765 12.6556C194.421 13.9999 193.685 15.3441 193.556 16.6884C193.427 18.0326 193.832 19.1743 194.771 20.1134C195.655 20.9973 196.787 21.3011 198.168 21.0249C199.55 20.7119 201.437 19.7635 203.831 18.1799C206.206 16.5779 208.324 15.3441 210.184 14.4786C215.947 11.8086 220.735 12.3794 224.547 16.1912C227.272 18.9165 228.313 22.2955 227.668 26.3282C227.005 30.3425 224.823 34.2003 221.122 37.9016C218.617 40.4059 215.947 42.1921 213.112 43.2601C210.276 44.2913 207.532 44.5859 204.88 44.144C202.21 43.6836 199.973 42.5512 198.168 40.7466L205.737 33.1783C207.228 34.5225 208.84 35.0842 210.57 34.8632C212.301 34.6422 213.986 33.7123 215.625 32.0735C217.154 30.5451 218.019 29.1088 218.222 27.7645C218.424 26.3835 218.056 25.2234 217.117 24.2842Z" fill="#333333"/>
</svg>
